<?xml version="1.0" encoding="utf-8"?>
<svg version="1.1" id="Capa_1" xmlns="http://www.w3.org/2000/svg" xmlns:xlink="http://www.w3.org/1999/xlink" x="0px" y="0px"
	 viewBox="0 0 1200 1200" enable-background="new 0 0 1200 1200" xml:space="preserve">
<g>
	<g>
		<g id="BACKGROUND_4_">
			<g>
				<linearGradient id="SVGID_1_" gradientUnits="userSpaceOnUse" x1="248.7224" y1="1084.6335" x2="923.3777" y2="153.8255">
					<stop  offset="0.0722" style="stop-color:#0164E1"/>
					<stop  offset="1" style="stop-color:#18AAFD"/>
				</linearGradient>
				<path fill="url(#SVGID_1_)" d="M599.98,50C296.238,50,50.024,296.257,50.024,599.999S296.242,1150,599.98,1150
					c52.279,0,102.855-7.314,150.75-20.965c197.625-56.186,349.924-220.139,389.287-424.311
					c6.543-33.916,9.959-68.936,9.959-104.721C1149.976,296.257,903.72,50,599.98,50z"/>
			</g>
		</g>
	</g>
	<g>
		<path fill="#FFFFFF" d="M370.357,856.978h-13.333c-36.556,0-66.19-29.635-66.19-66.19V553.645c0-36.556,29.634-66.19,66.19-66.19
			h13.333c36.556,0,66.19,29.634,66.19,66.19v237.143C436.547,827.344,406.913,856.978,370.357,856.978z"/>
		<path fill="#FFFFFF" d="M892.749,562.292c23.796,0,43.084-20.135,43.084-44.975c0-13.31-4.551-26.312-14.39-35.53
			c-11.744-11.004-27.302-14.322-42.851-15.637c-18.214-1.54-36.356-0.875-54.567-0.667c-13.995,0.16-27.99,0.297-41.985,0.405
			c-28.841,0.221-57.689,0.395-86.53,0.045c-1.456-0.018-19.15-0.568-19.173-0.378c4.647-37.999,20.447-73.41,25.673-111.234
			c4.344-31.438,1.003-62.429-22.133-85.777c-14.893-15.03-35.116-31.608-61.307-26.045c-25.449,5.405-30.587,33.909-30.6,55.836
			c-0.03,50.195-4.928,94.994-29.4,140.03c-13.043,24.004-35.84,41.255-52.478,62.926c-17.338,22.572-28.512,44.462-31.807,72.734
			c-4.36,37.336,0.498,156.147,2.383,174.359c1.492,14.354,5.153,28.025,13.305,39.997c37.061,54.472,117.022,44.26,174.022,44.175
			c48.934-0.073,103.147,0.319,152.024,0.089c13.487-0.063,27.949,0.766,40.541-4.956c10.807-4.911,19.244-16.579,22.408-27.78
			c1.169-4.14,1.753-8.44,1.753-12.741c0-24.845-19.288-44.975-43.079-44.975h7.191h17.993c23.796,0,43.084-20.13,43.084-44.975
			c0-24.84-19.288-44.975-43.084-44.975h13.562c23.791,0,43.084-20.13,43.084-44.975c0-24.84-19.288-44.975-43.084-44.975h2.475
			H892.749z"/>
	</g>
</g>
</svg>
